<svg width="23" height="22" viewBox="0 0 23 22" fill="none" xmlns="http://www.w3.org/2000/svg">
<g clip-path="url(#clip0_23_1050)">
<path fill-rule="evenodd" clip-rule="evenodd" d="M1.48387 20.5333C1.48387 21.4025 2.17262 22 2.96774 22H11.871H20.0323C20.8274 22 21.5161 21.4025 21.5161 20.5333V13.5667H21.8871C22.629 13.5667 23 12.8988 23 12.4667V7.85714C23 6.98795 22.3576 6.28571 21.5625 6.28571H19.6713C19.9498 5.69152 20.125 5.03348 20.125 4.32143C20.125 1.93973 18.3506 0 16.1719 0C14.3031 0 13.0947 1.04598 11.5449 3.35402C9.99512 1.04598 8.78672 0 6.91797 0C4.73926 0 2.96484 1.93973 2.96484 4.32143C2.96484 5.03348 3.13555 5.69152 3.41855 6.28571H1.4375C0.642383 6.28571 0 6.98795 0 7.85714V12.4667C0 12.8988 0.370968 13.5667 1.1129 13.5667H1.48387V20.5333ZM6.91348 6.28571C5.9207 6.28571 5.1166 5.4067 5.1166 4.32143C5.1166 3.23616 5.9207 2.35714 6.91348 2.35714C7.80742 2.35714 8.46777 2.5192 10.7813 6.28571H6.91348ZM12.3041 6.28571H16.1719C17.1646 6.28571 17.9688 5.4067 17.9688 4.32143C17.9688 3.23616 17.1646 2.35714 16.1719 2.35714C15.2555 2.35714 14.6131 2.52902 12.3041 6.28571ZM3.33871 19.4333C3.33871 20.3025 4.08065 20.1667 4.08065 20.1667H10.5601L10.5137 8.06667H1.85484V11.7333H8.90323V13.5667H3.33871V19.4333ZM12.4307 8.06667H21.1452V11.7333H14.0968V13.5667H19.6613V19.4333C19.6613 20.3025 18.9194 20.1667 18.9194 20.1667H12.4771L12.4307 8.06667Z" fill="#A97FF1"/>
</g>
<defs>
<clipPath id="clip0_23_1050">
<rect width="23" height="22" fill="white"/>
</clipPath>
</defs>
</svg>
