<svg width="200" height="50" viewBox="0 0 200 50" fill="none" xmlns="http://www.w3.org/2000/svg">
<path d="M75.7398 17.7666C73.6938 17.7666 71.9398 18.6776 70.8118 20.2956C69.8628 18.6766 68.1979 17.7666 66.1259 17.7666C64.3819 17.7666 62.8879 18.4226 61.7979 19.6426V18.0946H59.3828V33.9016H61.7979V25.1346C61.7979 21.4386 63.9418 20.1216 65.9478 20.1216C68.0738 20.1216 69.2938 21.5366 69.2938 24.0036V33.9006H71.7078V25.1336C71.7078 21.9476 73.1658 20.1206 75.7088 20.1206C77.8968 20.1206 79.2038 21.5716 79.2038 24.0026V33.8996H81.6188V24.0026C81.6198 20.2156 79.3108 17.7666 75.7398 17.7666Z" fill="#3B4554"/>
<path d="M98.4976 20.4386C97.0496 18.7236 94.9546 17.7666 92.5626 17.7666C87.9796 17.7666 84.3906 21.3816 84.3906 25.9966C84.3906 30.6126 87.9796 34.2276 92.5626 34.2276C94.9546 34.2276 97.0486 33.2706 98.4976 31.5566V33.9006H100.942V18.0936H98.4976V20.4386ZM98.4976 25.9976C98.4976 29.2926 95.9426 31.8736 92.6826 31.8736C89.4036 31.8736 86.8356 29.2926 86.8356 25.9976C86.8356 22.7036 89.4026 20.1226 92.6826 20.1226C95.9426 20.1226 98.4976 22.7036 98.4976 25.9976Z" fill="#3B4554"/>
<path d="M112.145 17.7666C110.108 17.7666 108.454 18.4836 107.281 19.8556V18.0946H104.867V33.9016H107.281V25.5816C107.281 22.1636 109.054 20.1226 112.025 20.1226C114.475 20.1226 115.937 21.6406 115.937 24.1836V33.9026H118.382V24.1836C118.382 20.2856 115.934 17.7666 112.145 17.7666Z" fill="#3B4554"/>
<path d="M132.873 26.4147C132.873 29.8327 131.1 31.8737 128.128 31.8737C125.679 31.8737 124.217 30.3557 124.217 27.8137V18.0947H121.773V27.8137C121.773 31.7107 124.221 34.2287 128.01 34.2287C130.045 34.2287 131.7 33.5127 132.873 32.1407V33.9017H135.288V18.0947H132.873V26.4147V26.4147Z" fill="#3B4554"/>
<path d="M152.373 20.4386C150.925 18.7236 148.83 17.7666 146.437 17.7666C141.855 17.7666 138.266 21.3816 138.266 25.9966C138.266 30.6126 141.855 34.2276 146.437 34.2276C148.83 34.2276 150.924 33.2706 152.373 31.5566V33.9006H154.817V18.0936H152.373V20.4386ZM152.373 25.9976C152.373 29.2926 149.818 31.8736 146.558 31.8736C143.279 31.8736 140.711 29.2926 140.711 25.9976C140.711 22.7036 143.278 20.1226 146.558 20.1226C149.818 20.1226 152.373 22.7036 152.373 25.9976Z" fill="#3B4554"/>
<path d="M167.089 17.7666C164.676 17.7666 162.583 18.7386 161.154 20.4796V12.1426H158.738V33.9016H161.154V31.5166C162.583 33.2566 164.675 34.2286 167.089 34.2286C171.671 34.2286 175.261 30.6136 175.261 25.9976C175.261 21.3826 171.671 17.7666 167.089 17.7666ZM167.001 20.1226C170.278 20.1226 172.846 22.7036 172.846 25.9976C172.846 29.2926 170.279 31.8736 167.001 31.8736C163.723 31.8736 161.155 29.2926 161.155 25.9976C161.155 22.7036 163.722 20.1226 167.001 20.1226Z" fill="#3B4554"/>
<path d="M180.723 11.25H178.309V33.902H180.723V11.25Z" fill="#3B4554"/>
<path d="M191.859 17.7666C187.124 17.7666 183.688 21.2276 183.688 25.9966C183.688 30.7656 187.173 34.2276 191.978 34.2276C194.978 34.2276 197.487 32.9196 198.862 30.6406L199.104 30.2406L196.979 28.9846L196.75 29.4056C195.906 30.9496 194.132 31.8726 192.008 31.8726C189.017 31.8726 186.755 30.0296 186.235 27.2346H199.646V26.7706C199.646 26.6616 199.652 26.5516 199.659 26.4426C199.667 26.3136 199.675 26.1846 199.675 26.0556C199.673 22.0386 196.934 17.7666 191.859 17.7666ZM191.859 20.1226C194.167 20.1226 196.627 21.5896 197.138 24.8506H186.224C186.696 22.0016 188.904 20.1226 191.859 20.1226Z" fill="#3B4554"/>
<path d="M49.699 46.994C49.699 48.488 48.488 49.699 46.994 49.699H2.70398C1.21098 49.699 0 48.488 0 46.994V2.70499C0 1.21099 1.21098 0 2.70398 0H46.994C48.488 0 49.699 1.21099 49.699 2.70499V46.994Z" fill="#A97FF1"/>
<path d="M42.7343 15.5011H42.2493C41.1693 15.5011 40.3223 16.3581 40.3223 17.4531V25.1061C40.3223 26.8721 39.6452 27.5281 37.8272 27.5281C37.2172 27.5281 36.5862 27.4461 35.9382 27.2831V17.4531C35.9382 17.2941 35.9143 17.1411 35.8773 16.9921C35.7963 16.4321 35.4883 15.9221 34.9973 15.5941L34.8712 15.5101L34.7332 15.4481C33.1482 14.7431 31.3692 14.3711 29.5872 14.3711C25.2462 14.3711 22.6552 16.8711 22.6552 21.0591V28.7381C22.6552 28.8241 22.6693 28.9051 22.6793 28.9871C22.5873 30.4831 21.8912 31.0621 20.2012 31.0621C19.5922 31.0621 18.9612 30.9791 18.3132 30.8171V20.9861C18.3132 20.8271 18.2893 20.6741 18.2523 20.5251C18.1703 19.9641 17.8633 19.4541 17.3723 19.1261L17.2462 19.0431L17.1082 18.9811C15.5232 18.2761 13.7442 17.9041 11.9622 17.9041C7.62222 17.9041 5.03125 20.4051 5.03125 24.5921V32.2711C5.03125 33.3501 5.87721 34.1971 6.95721 34.1971H7.41925C8.51325 34.1971 9.36926 33.3501 9.36926 32.2711V24.6171C9.36926 23.1211 9.80422 22.1931 11.9622 22.1931C12.6032 22.1931 13.2882 22.2771 13.9482 22.4321V32.2711C13.9482 32.4581 13.9812 32.6341 14.0292 32.8031C14.1542 33.4661 14.5813 34.0251 15.1973 34.2721C16.7213 34.9621 18.4493 35.3281 20.2003 35.3281C24.4173 35.3281 27.0352 32.7651 27.0352 28.6401V20.9871C27.0352 20.8911 27.0202 20.8001 27.0082 20.7091C27.0872 19.4391 27.6163 18.6621 29.5853 18.6621C30.2253 18.6621 30.9113 18.7461 31.5703 18.8991V28.7391C31.5703 28.9271 31.6032 29.1021 31.6512 29.2721C31.7762 29.9331 32.2033 30.4931 32.8203 30.7401C34.3433 31.4311 36.0712 31.7961 37.8232 31.7961C42.0392 31.7961 44.6583 29.2331 44.6583 25.1081V17.4551C44.6623 16.3581 43.8153 15.5011 42.7343 15.5011Z" fill="white"/>
</svg>
